<?xml version="1.0" encoding="UTF-8" standalone="no" ?>
<!DOCTYPE svg PUBLIC "-//W3C//DTD SVG 1.1//EN" "http://www.w3.org/Graphics/SVG/1.1/DTD/svg11.dtd">
<svg xmlns="http://www.w3.org/2000/svg" xmlns:xlink="http://www.w3.org/1999/xlink" version="1.1" width="300" height="300" viewBox="0 0 600 600" xml:space="preserve">
<desc>Created with Fabric.js 5.2.4</desc>
<defs>
</defs>
<g transform="matrix(1 0 0 1 540 540)" id="c3d33842-981a-41e9-9c1d-24ff2f36adaa"  >
<rect style="stroke: none; stroke-width: 1; stroke-dasharray: none; stroke-linecap: butt; stroke-dashoffset: 0; stroke-linejoin: miter; stroke-miterlimit: 4; fill: rgb(255,255,255); fill-rule: nonzero; opacity: 1; visibility: hidden;" vector-effect="non-scaling-stroke"  x="-540" y="-540" rx="0" ry="0" width="1080" height="1080" />
</g>
<g transform="matrix(1 0 0 1 540 540)" id="570a4b3d-f511-49ba-9cd8-c8487fbee944"  >
</g>
<g transform="matrix(1.45 0 0 1.45 280.79 223.18)" id="4fbe6274-4d42-464d-9e7e-442771cefa2a"  >
<path style="stroke: rgb(0,0,0); stroke-width: 0; stroke-dasharray: none; stroke-linecap: butt; stroke-dashoffset: 0; stroke-linejoin: miter; stroke-miterlimit: 4; fill: rgb(0,0,0); fill-rule: nonzero; opacity: 1;" vector-effect="non-scaling-stroke"  transform=" translate(-350.01, -280)" d="M 499.69 137.43 L 318.48 137.43 C 310.97610000000003 137.46125 303.773 140.39090000000002 298.375 145.60580000000002 L 180.16500000000002 255.86580000000004 C 174.2041 261.4517 170.81730000000002 269.25680000000006 170.81340000000003 277.42780000000005 L 170.81340000000003 390.48780000000005 C 170.82902500000003 398.99170000000004 174.21180000000004 407.1478000000001 180.22750000000002 413.1598000000001 C 186.24310000000003 419.1754000000001 194.39550000000003 422.5621000000001 202.89950000000002 422.5739000000001 L 499.69950000000006 422.5739000000001 C 507.51590000000004 422.5739000000001 515.0155000000001 419.4723000000001 520.5475 413.9528000000001 C 526.0827 408.4294000000001 529.1959 400.93680000000006 529.2116 393.1208000000001 L 529.2116 166.88080000000008 C 529.195975 159.0644000000001 526.0826999999999 151.57180000000008 520.5475 146.04880000000009 C 515.0163 140.5293000000001 507.5165 137.42770000000007 499.6995 137.42770000000007 z M 464.131 351.68 C 464.131 354.6527 462.95129999999995 357.5003 460.84979999999996 359.598 C 458.74819999999994 361.69960000000003 455.90059999999994 362.8792 452.93179999999995 362.8792 L 413.16979999999995 362.8792 C 406.98229999999995 362.8792 401.97079999999994 357.8675 401.97079999999994 351.6802 L 401.97079999999994 338.18420000000003 L 464.1307999999999 338.18420000000003 z M 473.20129999999995 289.407 C 473.20129999999995 292.37969999999996 472.0215999999999 295.22729999999996 469.92009999999993 297.3289 C 467.82239999999996 299.4305 464.9708999999999 300.6101 462.0020999999999 300.6101 L 242.65209999999993 300.6101 C 238.06229999999994 300.594475 233.94509999999994 297.7781 232.26509999999993 293.5046 C 230.58539999999994 289.2351 231.68306999999993 284.36789999999996 235.03459999999993 281.23159999999996 L 325.69859999999994 196.45059999999995 C 327.73769999999996 194.54039999999995 330.41339999999997 193.46229999999994 333.20249999999993 193.42719999999994 L 462.00249999999994 193.42719999999994 C 464.9712999999999 193.42719999999994 467.8227999999999 194.60689999999994 469.92049999999995 196.70449999999994 C 472.02209999999997 198.80609999999993 473.20169999999996 201.65369999999993 473.20169999999996 204.62639999999993 z" stroke-linecap="round" />
</g>
</svg>