<?xml version="1.0" encoding="UTF-8" standalone="no" ?>
<!DOCTYPE svg PUBLIC "-//W3C//DTD SVG 1.1//EN" "http://www.w3.org/Graphics/SVG/1.1/DTD/svg11.dtd">
<svg xmlns="http://www.w3.org/2000/svg" xmlns:xlink="http://www.w3.org/1999/xlink" version="1.1" width="350" height="400" viewBox="0 0 300 600" xml:space="preserve">
<desc>Created with Fabric.js 5.2.4</desc>
<defs>
</defs>
<g transform="matrix(1 0 0 1 540 540)" id="48c95524-7b64-42ee-bfa1-c0c3cc09c76b"  >
<rect style="stroke: none; stroke-width: 1; stroke-dasharray: none; stroke-linecap: butt; stroke-dashoffset: 0; stroke-linejoin: miter; stroke-miterlimit: 4; fill: rgb(255,255,255); fill-rule: nonzero; opacity: 1; visibility: hidden;" vector-effect="non-scaling-stroke"  x="-540" y="-540" rx="0" ry="0" width="1080" height="1080" />
</g>
<g transform="matrix(1 0 0 1 540 540)" id="edbea4cb-0734-41ce-85f8-ae4b56db479b"  >
</g>
<g transform="matrix(1 0 0 1 233.37 295.01)" id="ba171a9c-2b06-4023-9add-3ae8658abed6"  >
<path style="stroke: rgb(0,0,0); stroke-width: 0; stroke-dasharray: none; stroke-linecap: butt; stroke-dashoffset: 0; stroke-linejoin: miter; stroke-miterlimit: 4; fill: rgb(0,0,0); fill-rule: nonzero; opacity: 1;" vector-effect="non-scaling-stroke"  transform=" translate(-350, -280)" d="M 192.72 33.602 C 186.5364 33.602 181.521 38.617599999999996 181.521 44.800999999999995 L 181.521 108.25 C 181.521 114.4336 186.5366 119.449 192.72 119.449 L 199.3294 119.449 L 199.3294 137.984 L 192.72 137.984 C 186.5364 137.984 181.521 142.99960000000002 181.521 149.187 L 181.521 515.207 C 181.521 521.3906 186.5366 526.406 192.72 526.406 L 507.27 526.406 C 513.4535999999999 526.406 518.4689999999999 521.3904 518.4689999999999 515.207 L 518.4689999999999 472.254 C 518.4689999999999 448.06300000000005 505.79299999999995 429.91 487.79299999999995 420.586 C 469.79299999999995 411.262 447.3949999999999 408.777 423.52699999999993 408.70300000000003 C 381.5109999999999 408.57019 333.8979999999999 416.5468 302.01699999999994 418.5858 C 303.3802999999999 405.9728 306.26699999999994 387.4058 309.37249999999995 366.53880000000004 C 313.66549999999995 337.68680000000006 318.25139999999993 303.76880000000006 319.24359999999996 270.99580000000003 C 320.23578999999995 238.22280000000003 317.89979999999997 206.56980000000004 306.7476 181.42180000000002 C 295.5956 156.26980000000003 273.10659999999996 137.99580000000003 240.93159999999997 137.99580000000003 L 221.72459999999998 137.99580000000003 L 221.72459999999998 119.46080000000003 L 268.9906 119.46080000000003 L 268.9906 119.45298800000003 C 275.1742 119.45298800000003 280.1896 114.43738800000003 280.1896 108.25398800000004 L 280.1896 76.49998800000003 C 280.1896 52.98398800000003 260.8696 33.60498800000003 237.29459999999997 33.60498800000003 z" stroke-linecap="round" />
</g>
</svg>