<svg width="16" height="16" viewBox="0 0 16 16" fill="none" xmlns="http://www.w3.org/2000/svg">
<path d="M9.96 3.46001C10.212 3.16953 10.4042 2.83212 10.5255 2.46717C10.6467 2.10221 10.6947 1.7169 10.6667 1.33334C9.89292 1.3958 9.17467 1.75971 8.66667 2.34668C8.4234 2.62799 8.23905 2.95526 8.12454 3.30911C8.01003 3.66295 7.96768 4.03617 8 4.40668C8.37743 4.40982 8.75052 4.32607 9.0904 4.16192C9.43028 3.99776 9.72782 3.75759 9.96 3.46001ZM11.64 8.42001C11.6445 7.90917 11.779 7.40789 12.031 6.96348C12.2829 6.51907 12.644 6.14618 13.08 5.88001C12.8048 5.4835 12.441 5.15657 12.0175 4.92513C11.594 4.69369 11.1223 4.56411 10.64 4.54668C9.6 4.44001 8.64 5.15334 8.08667 5.15334C7.53334 5.15334 6.75333 4.56001 5.88667 4.57334C5.32009 4.59201 4.76802 4.7572 4.2843 5.0528C3.80058 5.34841 3.40174 5.76433 3.12667 6.26001C1.95334 8.30001 2.82667 11.3333 4 12.98C4.53334 13.7867 5.2 14.7 6.08 14.6667C6.96 14.6333 7.24667 14.12 8.26667 14.12C9.28667 14.12 9.6 14.6667 10.4667 14.6467C11.3333 14.6267 11.9467 13.82 12.5067 13.0133C12.9034 12.4277 13.2132 11.7877 13.4267 11.1133C12.8983 10.888 12.4475 10.5129 12.13 10.0342C11.8125 9.55557 11.6422 8.9944 11.64 8.42001Z" fill="black"/>
</svg>
