<svg width="310" height="142" viewBox="0 0 310 142" fill="none" xmlns="http://www.w3.org/2000/svg">
<path d="M8 119.55C44.5 90.5533 80.5 119.55 80.5 119.55" stroke="black" stroke-width="15" stroke-linecap="round"/>
<path d="M156 119.55C192.5 90.5533 228.5 119.55 228.5 119.55" stroke="black" stroke-width="15" stroke-linecap="round"/>
<path d="M154.5 120.663C118 149.66 82 120.663 82 120.663" stroke="black" stroke-width="15" stroke-linecap="round"/>
<path d="M301.5 119.663C265 148.66 229 119.663 229 119.663" stroke="black" stroke-width="15" stroke-linecap="round"/>
<path d="M8 86.6626C44.5 57.6658 80.5 86.6628 80.5 86.6628" stroke="black" stroke-width="15" stroke-linecap="round"/>
<path d="M156 86.6626C192.5 57.6658 228.5 86.6628 228.5 86.6628" stroke="black" stroke-width="15" stroke-linecap="round"/>
<path d="M154.5 87.7752C118 116.772 82 87.7751 82 87.7751" stroke="black" stroke-width="15" stroke-linecap="round"/>
<path d="M301.5 86.7752C265 115.772 229 86.7751 229 86.7751" stroke="black" stroke-width="15" stroke-linecap="round"/>
<path d="M9 53.775C45.5 24.7782 81.5 53.7752 81.5 53.7752" stroke="black" stroke-width="15" stroke-linecap="round"/>
<path d="M157 53.775C193.5 24.7782 229.5 53.7752 229.5 53.7752" stroke="black" stroke-width="15" stroke-linecap="round"/>
<path d="M155.5 54.8877C119 83.8845 83 54.8875 83 54.8875" stroke="black" stroke-width="15" stroke-linecap="round"/>
<path d="M302.5 53.8877C266 82.8845 230 53.8875 230 53.8875" stroke="black" stroke-width="15" stroke-linecap="round"/>
<path d="M9 20.8875C45.5 -8.10937 81.5 20.8876 81.5 20.8876" stroke="black" stroke-width="15" stroke-linecap="round"/>
<path d="M157 20.8875C193.5 -8.10937 229.5 20.8876 229.5 20.8876" stroke="black" stroke-width="15" stroke-linecap="round"/>
<path d="M155.5 22.0001C119 50.9969 83 22 83 22" stroke="black" stroke-width="15" stroke-linecap="round"/>
<path d="M302.5 21.0001C266 49.9969 230 21 230 21" stroke="black" stroke-width="15" stroke-linecap="round"/>
</svg>
