<svg width="15" height="15" viewBox="0 0 15 15" fill="none" xmlns="http://www.w3.org/2000/svg">
<path d="M14.8406 7.66875C14.8406 7.175 14.7969 6.70625 14.7219 6.25H7.65936V9.06875H11.7031C11.5219 9.99375 10.9906 10.775 10.2031 11.3063V13.1813H12.6156C14.0281 11.875 14.8406 9.95 14.8406 7.66875Z" fill="#4285F4"/>
<path d="M7.65936 15C9.68436 15 11.3781 14.325 12.6156 13.1812L10.2031 11.3062C9.52811 11.7562 8.67186 12.0312 7.65936 12.0312C5.70311 12.0312 4.04686 10.7125 3.45311 8.93124H0.965607V10.8625C2.19686 13.3125 4.72811 15 7.65936 15Z" fill="#34A853"/>
<path d="M3.45311 8.93126C3.29686 8.48126 3.21561 8.00001 3.21561 7.50001C3.21561 7.00001 3.30311 6.51876 3.45311 6.06876V4.13751H0.965612C0.453112 5.15001 0.159363 6.28751 0.159363 7.50001C0.159363 8.71251 0.453112 9.85001 0.965612 10.8625L3.45311 8.93126Z" fill="#FBBC05"/>
<path d="M7.65936 2.96875C8.76561 2.96875 9.75311 3.35 10.5344 4.09375L12.6719 1.95625C11.3781 0.743751 9.68436 0 7.65936 0C4.72811 0 2.19686 1.6875 0.965607 4.1375L3.45311 6.06875C4.04686 4.2875 5.70311 2.96875 7.65936 2.96875Z" fill="#EA4335"/>
</svg>
