<svg width="188" height="68" viewBox="0 0 188 68" fill="none" xmlns="http://www.w3.org/2000/svg">
<g filter="url(#filter0_d_0_1)">
<path d="M181.339 32.12C183.185 33.7092 183.191 36.5668 181.353 38.1677L160.574 56.2609C157.989 58.5124 153.957 56.685 153.949 53.2581L153.869 17.2038C153.861 13.777 157.885 11.9239 160.481 14.159L181.339 32.12Z" fill="white"/>
<path d="M39 16C39 13.7909 40.7909 12 43 12L156.186 12C158.395 12 160.186 13.7909 160.186 16V54.603C160.186 56.8122 158.395 58.603 156.186 58.603L43 58.603C40.7909 58.603 39 56.8122 39 54.603L39 16Z" fill="white"/>
<path d="M144 12.2076H156.301C156.765 12.2076 157.228 12.2646 157.678 12.3772V12.3772C158.547 12.5944 159.352 13.0139 160.028 13.6015L181.582 32.3441C181.859 32.5854 182.103 32.8626 182.307 33.1686L182.445 33.3756C182.807 33.9181 183 34.5556 183 35.2076V35.2076C183 35.8597 182.807 36.4971 182.445 37.0397L182.314 37.2361C182.106 37.5489 181.855 37.8315 181.569 38.0757L159.023 57.3342C158.35 57.9086 157.553 58.3193 156.695 58.5338V58.5338C156.234 58.6492 155.759 58.7066 155.283 58.7045L43.1263 58.2104C42.7103 58.2085 42.296 58.1566 41.8924 58.0557L41.3247 57.9138C40.7851 57.7789 40.2922 57.4998 39.8989 57.1065V57.1065C39.3233 56.531 39 55.7503 39 54.9364V45.7076" stroke="#17161C" stroke-width="2" stroke-linecap="round"/>
</g>
<g filter="url(#filter1_d_0_1)">
<rect x="147.911" y="47.271" width="121.186" height="46.603" rx="4" transform="rotate(-179.968 147.911 47.271)" fill="#17161C"/>
<path d="M5.58348 27.0709C3.73873 25.4806 3.73397 22.6231 5.5734 21.0231L26.3619 2.94162C28.9488 0.691586 32.9796 2.52132 32.9853 5.9482L33.0454 42.0025C33.0511 45.4294 29.0264 47.2801 26.4321 45.0436L5.58348 27.0709Z" fill="#17161C"/>
<path d="M54.0238 32L49.3438 32L55.7038 15.2L60.5038 15.2L66.8638 32L62.1838 32L61.1038 29L55.1038 29L54.0238 32ZM56.1838 25.88L60.0238 25.88L58.1038 20.24L56.1838 25.88ZM72.2628 28.64L81.0228 28.64L81.0228 32L67.9428 32L67.9428 15.2L72.2628 15.2L72.2628 28.64ZM87.8656 32L83.5456 32L83.5456 18.56L78.5056 18.56L78.5056 15.2L92.9056 15.2L92.9056 18.56L87.8656 18.56L87.8656 32ZM107.788 32L94.4684 32L94.4684 15.2L107.788 15.2L107.788 18.56L98.7884 18.56L98.7884 21.8L105.868 21.8L105.868 25.16L98.7884 25.16L98.7884 28.64L107.788 28.64L107.788 32ZM109.583 15.2L119.663 15.2C121.343 15.2 122.559 15.584 123.311 16.352C124.079 17.104 124.463 18.32 124.463 20L124.463 22.16C124.463 23.488 124.239 24.52 123.791 25.256C123.359 25.992 122.663 26.48 121.703 26.72L124.703 32L120.023 32L117.263 26.96L113.903 26.96L113.903 32L109.583 32L109.583 15.2ZM120.143 20C120.143 19.04 119.663 18.56 118.703 18.56L113.903 18.56L113.903 23.6L118.703 23.6C119.663 23.6 120.143 23.12 120.143 22.16L120.143 20Z" fill="white"/>
</g>
<defs>
<filter id="filter0_d_0_1" x="34" y="11.2076" width="154" height="56.4969" filterUnits="userSpaceOnUse" color-interpolation-filters="sRGB">
<feFlood flood-opacity="0" result="BackgroundImageFix"/>
<feColorMatrix in="SourceAlpha" type="matrix" values="0 0 0 0 0 0 0 0 0 0 0 0 0 0 0 0 0 0 127 0" result="hardAlpha"/>
<feOffset dy="4"/>
<feGaussianBlur stdDeviation="2"/>
<feComposite in2="hardAlpha" operator="out"/>
<feColorMatrix type="matrix" values="0 0 0 0 0 0 0 0 0 0 0 0 0 0 0 0 0 0 0.25 0"/>
<feBlend mode="normal" in2="BackgroundImageFix" result="effect1_dropShadow_0_1"/>
<feBlend mode="normal" in="SourceGraphic" in2="effect1_dropShadow_0_1" result="shape"/>
</filter>
<filter id="filter1_d_0_1" x="0.196869" y="0.60199" width="151.739" height="54.6667" filterUnits="userSpaceOnUse" color-interpolation-filters="sRGB">
<feFlood flood-opacity="0" result="BackgroundImageFix"/>
<feColorMatrix in="SourceAlpha" type="matrix" values="0 0 0 0 0 0 0 0 0 0 0 0 0 0 0 0 0 0 127 0" result="hardAlpha"/>
<feOffset dy="4"/>
<feGaussianBlur stdDeviation="2"/>
<feComposite in2="hardAlpha" operator="out"/>
<feColorMatrix type="matrix" values="0 0 0 0 0 0 0 0 0 0 0 0 0 0 0 0 0 0 0.25 0"/>
<feBlend mode="normal" in2="BackgroundImageFix" result="effect1_dropShadow_0_1"/>
<feBlend mode="normal" in="SourceGraphic" in2="effect1_dropShadow_0_1" result="shape"/>
</filter>
</defs>
</svg>
