<svg width="20" height="18" viewBox="0 0 20 18" fill="none" xmlns="http://www.w3.org/2000/svg">
<g clip-path="url(#clip0_12_88)">
<path d="M18.3368 5.95494L13.2639 5.21535L10.9965 0.61813C10.5903 -0.201315 9.4132 -0.211732 9.00348 0.61813L6.73612 5.21535L1.6632 5.95494C0.753475 6.08688 0.388892 7.20841 1.04861 7.85077L4.71876 11.4272L3.8507 16.4792C3.69445 17.3924 4.65626 18.0765 5.46181 17.6494L10 15.264L14.5382 17.6494C15.3438 18.073 16.3056 17.3924 16.1493 16.4792L15.2813 11.4272L18.9514 7.85077C19.6111 7.20841 19.2465 6.08688 18.3368 5.95494ZM13.4931 10.8438L14.316 15.6494L10 13.382L5.68403 15.6494L6.50695 10.8438L3.01389 7.44105L7.84029 6.73966L10 2.36466L12.1597 6.73966L16.9861 7.44105L13.4931 10.8438Z" fill="#FCA311"/>
</g>
<defs>
<clipPath id="clip0_12_88">
<rect width="20" height="17.7778" fill="white"/>
</clipPath>
</defs>
</svg>
