<svg width="30" height="30" viewBox="0 0 30 30" fill="none" xmlns="http://www.w3.org/2000/svg">
<path d="M6 22.7419C9.03473 14.754 20.2453 14.754 23.28 22.7419" stroke="black" stroke-width="2"/>
<path d="M14.6399 14.7581C17.0258 14.7581 18.9599 12.8083 18.9599 10.4032C18.9599 7.99811 17.0258 6.04839 14.6399 6.04839C12.2541 6.04839 10.3199 7.99811 10.3199 10.4032C10.3199 12.8083 12.2541 14.7581 14.6399 14.7581Z" stroke="black" stroke-width="2"/>
<path d="M14.64 26.371C21.0023 26.371 26.16 21.1717 26.16 14.7581C26.16 8.34444 21.0023 3.14516 14.64 3.14516C8.27768 3.14516 3.12 8.34444 3.12 14.7581C3.12 21.1717 8.27768 26.371 14.64 26.371Z" stroke="black" stroke-width="2"/>
</svg>
