<svg width="30" height="35" viewBox="0 0 30 35" fill="none" xmlns="http://www.w3.org/2000/svg">
<g clip-path="url(#clip0_8_134)">
<path d="M15.0067 9.44193C10.7478 9.44193 7.31251 12.8772 7.31251 17.1361C7.31251 21.3951 10.7478 24.8303 15.0067 24.8303C19.2656 24.8303 22.7009 21.3951 22.7009 17.1361C22.7009 12.8772 19.2656 9.44193 15.0067 9.44193ZM15.0067 22.1384C12.2545 22.1384 10.0045 19.8951 10.0045 17.1361C10.0045 14.3772 12.2478 12.1339 15.0067 12.1339C17.7656 12.1339 20.0089 14.3772 20.0089 17.1361C20.0089 19.8951 17.7589 22.1384 15.0067 22.1384ZM24.8103 9.1272C24.8103 10.125 24.0067 10.9218 23.0156 10.9218C22.0179 10.9218 21.221 10.1183 21.221 9.1272C21.221 8.13613 22.0245 7.33255 23.0156 7.33255C24.0067 7.33255 24.8103 8.13613 24.8103 9.1272ZM29.9062 10.9486C29.7924 8.54461 29.2433 6.41514 27.4821 4.66068C25.7277 2.90621 23.5982 2.35711 21.1942 2.23657C18.7165 2.09595 11.2902 2.09595 8.81251 2.23657C6.41519 2.35041 4.28573 2.89952 2.52457 4.65398C0.76341 6.40845 0.220999 8.53791 0.100464 10.9419C-0.0401611 13.4196 -0.0401611 20.8459 0.100464 23.3236C0.214303 25.7276 0.76341 27.8571 2.52457 29.6116C4.28573 31.366 6.40849 31.9151 8.81251 32.0357C11.2902 32.1763 18.7165 32.1763 21.1942 32.0357C23.5982 31.9218 25.7277 31.3727 27.4821 29.6116C29.2366 27.8571 29.7857 25.7276 29.9062 23.3236C30.0469 20.8459 30.0469 13.4263 29.9062 10.9486ZM26.7053 25.9821C26.183 27.2946 25.1719 28.3058 23.8527 28.8348C21.8772 29.6183 17.1897 29.4375 15.0067 29.4375C12.8237 29.4375 8.12947 29.6116 6.16073 28.8348C4.84823 28.3125 3.83707 27.3013 3.30805 25.9821C2.52457 24.0067 2.70537 19.3192 2.70537 17.1361C2.70537 14.9531 2.53127 10.2589 3.30805 8.29014C3.83037 6.97764 4.84153 5.96648 6.16073 5.43746C8.13617 4.65398 12.8237 4.83479 15.0067 4.83479C17.1897 4.83479 21.8839 4.66068 23.8527 5.43746C25.1652 5.95979 26.1763 6.97095 26.7053 8.29014C27.4888 10.2656 27.308 14.9531 27.308 17.1361C27.308 19.3192 27.4888 24.0134 26.7053 25.9821Z" fill="black"/>
</g>
<defs>
<clipPath id="clip0_8_134">
<rect width="30" height="34.2857" fill="white"/>
</clipPath>
</defs>
</svg>
