<svg width="38" height="35" viewBox="0 0 38 35" fill="none" xmlns="http://www.w3.org/2000/svg">
<path d="M36.262 8.45757C35.8477 6.84558 34.6268 5.57603 33.0766 5.14519C30.2669 4.3623 19.0001 4.3623 19.0001 4.3623C19.0001 4.3623 7.73333 4.3623 4.92351 5.14519C3.37336 5.5761 2.15248 6.84558 1.7381 8.45757C0.985229 11.3794 0.985229 17.4755 0.985229 17.4755C0.985229 17.4755 0.985229 23.5716 1.7381 26.4934C2.15248 28.1054 3.37336 29.3221 4.92351 29.7529C7.73333 30.5358 19.0001 30.5358 19.0001 30.5358C19.0001 30.5358 30.2668 30.5358 33.0766 29.7529C34.6268 29.3221 35.8477 28.1054 36.262 26.4934C37.0149 23.5716 37.0149 17.4755 37.0149 17.4755C37.0149 17.4755 37.0149 11.3794 36.262 8.45757ZM15.3152 23.0103V11.9407L24.732 17.4756L15.3152 23.0103Z" fill="black"/>
</svg>
